<svg xmlns="http://www.w3.org/2000/svg" xmlns:xlink="http://www.w3.org/1999/xlink" width="2000" zoomAndPan="magnify" viewBox="0 0 1500 1499.999933" height="2000" preserveAspectRatio="xMidYMid meet" version="1.0"><defs><clipPath id="fded1c33ca"><path d="M 1167 112.402344 L 1306 112.402344 L 1306 255 L 1167 255 Z M 1167 112.402344 " clip-rule="nonzero"/></clipPath><clipPath id="0c922a4b1b"><path d="M 219.34375 550 L 368 550 L 368 681 L 219.34375 681 Z M 219.34375 550 " clip-rule="nonzero"/></clipPath></defs><path fill="#00a79d" d="M 922.378906 239.34375 C 923.308594 199.367188 946.480469 158.738281 983.800781 144.34375 C 1021.117188 129.949219 1070.046875 148.84375 1081.941406 187.019531 C 1102.9375 254.394531 1011.210938 311.050781 1014.761719 381.53125 C 1069.277344 406.605469 1135.855469 335.164062 1188.183594 364.535156 C 1218.980469 381.816406 1220.734375 433.464844 1191.183594 452.796875 C 1173.421875 464.421875 1150.703125 464.042969 1130.0625 468.992188 C 1109.417969 473.941406 1087.339844 489.578125 1089.402344 510.699219 C 1091.777344 535.097656 1121.628906 543.980469 1143.695312 554.671875 C 1185.03125 574.695312 1211.921875 621.222656 1208.628906 667.023438 C 1206.703125 693.8125 1192.035156 722.480469 1166.050781 729.300781 C 1128.054688 739.277344 1087.355469 698.890625 1051.71875 715.417969 C 1028.367188 726.25 1021.171875 756.957031 1025.941406 782.246094 C 1030.707031 807.535156 1044.128906 830.375 1050.824219 855.226562 C 1062.242188 897.609375 1052.46875 945.15625 1025.257812 979.605469 C 998.042969 1014.050781 954.042969 1034.574219 910.152344 1033.289062 C 897.285156 1032.914062 884.179688 1030.667969 872.988281 1024.308594 C 809.152344 988.011719 856.382812 863.171875 790.394531 830.957031 C 767.851562 819.949219 740.742188 826.066406 717.597656 835.738281 C 678.019531 852.277344 643.148438 878.28125 604.730469 897.355469 C 566.3125 916.429688 521.191406 928.421875 480.617188 914.5 C 440.042969 900.582031 409.585938 852.871094 426.601562 813.507812 C 449.195312 761.234375 528.652344 761.011719 561.914062 714.785156 C 565.882812 709.269531 569.125 703.078125 570.214844 696.371094 C 573.363281 676.953125 557.578125 658.898438 539.621094 650.855469 C 521.664062 642.8125 501.476562 641.71875 482.378906 636.96875 C 432.878906 624.652344 389.097656 581.519531 387.730469 530.542969 C 386.363281 479.566406 438.566406 430.785156 487.527344 445.085938 C 522.863281 455.40625 556.695312 492.9375 589.132812 475.535156 C 611.339844 463.617188 614.214844 431.144531 602.703125 408.730469 C 591.191406 386.3125 569.84375 370.992188 550.789062 354.492188 C 523.625 330.972656 499.375 302.660156 487.546875 268.738281 C 475.71875 234.8125 478.023438 194.578125 499.863281 166.046875 C 521.699219 137.511719 564.921875 125.15625 595.789062 143.554688 C 641.835938 171.003906 635.675781 237.683594 648.859375 289.636719 C 653.597656 308.292969 662.261719 327.019531 678.078125 337.992188 C 693.894531 348.964844 718.097656 349.347656 730.691406 334.789062 C 760 300.902344 701.671875 238.742188 733.734375 207.449219 C 754.269531 187.40625 791.332031 207.265625 800.679688 234.394531 C 810.027344 261.519531 802.816406 291.179688 802.621094 319.871094 C 802.429688 348.5625 822.984375 394.992188 842.023438 389.125 C 858.761719 383.964844 853.984375 321.46875 871.058594 325.378906 C 882.265625 327.945312 891.78125 360.722656 903.046875 358.417969 C 932.601562 352.375 921.820312 263.316406 922.378906 239.34375 Z M 922.378906 239.34375 " fill-opacity="1" fill-rule="nonzero"/><g clip-path="url(#fded1c33ca)"><path fill="#00a79d" d="M 1192.15625 126.882812 C 1185.347656 124.761719 1177.90625 129.429688 1174.46875 135.679688 C 1171.03125 141.925781 1170.625 149.335938 1170.292969 156.460938 C 1169.28125 178.371094 1168.265625 200.28125 1167.25 222.191406 C 1166.871094 230.335938 1166.6875 239.175781 1171.449219 245.796875 C 1178.203125 255.191406 1192.386719 256.015625 1203.070312 251.574219 C 1213.757812 247.136719 1222.226562 238.761719 1231.65625 232.058594 C 1246.527344 221.488281 1263.960938 214.980469 1278.925781 204.542969 C 1293.890625 194.105469 1306.84375 177.769531 1305.644531 159.566406 C 1304.519531 142.402344 1290.785156 128.132812 1275.019531 121.242188 C 1259.253906 114.351562 1241.625 113.425781 1224.4375 112.601562 C 1222.390625 112.503906 1220.320312 112.410156 1218.253906 112.410156 C 1213.707031 112.40625 1209.195312 112.839844 1205.0625 114.644531 C 1199.054688 117.265625 1194.167969 123.710938 1195.589844 130.105469 Z M 1192.15625 126.882812 " fill-opacity="1" fill-rule="nonzero"/></g><path fill="#00a79d" d="M 653.011719 1100.402344 C 642.875 1122.015625 644.78125 1150.171875 661.652344 1167.066406 C 681.707031 1187.148438 717.234375 1185.097656 739.4375 1167.414062 C 761.636719 1149.730469 771.851562 1120.382812 773.089844 1092.035156 C 773.78125 1076.113281 771.792969 1059.507812 763.425781 1045.9375 C 738.648438 1005.785156 667.492188 1069.539062 653.011719 1100.40625 Z M 653.011719 1100.402344 " fill-opacity="1" fill-rule="nonzero"/><g clip-path="url(#0c922a4b1b)"><path fill="#00a79d" d="M 285.539062 555.859375 C 269.375 547.28125 248.152344 554.394531 236.316406 568.347656 C 224.476562 582.304688 220.457031 601.34375 219.875 619.632812 C 219.34375 636.339844 222.027344 654.574219 234.054688 666.191406 C 247.132812 678.820312 267.15625 679.996094 285.335938 680.378906 C 303.824219 680.773438 323.03125 680.964844 339.878906 673.332031 C 356.722656 665.703125 370.449219 647.847656 367.105469 629.664062 C 365.660156 621.785156 361.285156 614.800781 356.996094 608.03125 C 339.433594 580.308594 315.972656 549.242188 283.15625 550.023438 Z M 285.539062 555.859375 " fill-opacity="1" fill-rule="nonzero"/></g><path fill="#d9528d" d="M 629.382812 257.742188 C 629.382812 257.742188 691.707031 209.421875 717.011719 246.367188 C 742.320312 283.3125 680.019531 351.558594 652.753906 341.914062 C 625.492188 332.265625 570.992188 325.511719 629.382812 257.742188 Z M 629.382812 257.742188 " fill-opacity="1" fill-rule="nonzero"/><path fill="#d9528d" d="M 277.902344 719.074219 C 277.902344 719.074219 401.296875 650.960938 418.304688 655.214844 C 435.3125 659.46875 401.296875 587.105469 482.132812 544.542969 C 562.964844 501.976562 448.023438 462.234375 482.132812 406.90625 C 516.238281 351.582031 567.214844 436.6875 633.882812 442.375 C 700.550781 448.0625 754.394531 477.839844 795.546875 350.148438 C 836.703125 222.457031 863.625 145.792969 926.039062 171.359375 C 988.457031 196.929688 998.371094 250.824219 960.148438 318.914062 C 921.925781 387.003906 897.664062 432.433594 911.851562 470.742188 C 926.039062 509.050781 994.117188 500.542969 1065.015625 483.527344 C 1135.910156 466.511719 1158.625 517.652344 1124.585938 555.894531 C 1090.546875 594.132812 1005.464844 612.652344 1018.21875 642.339844 C 1030.976562 672.027344 1121.746094 680.648438 1187.003906 655.101562 C 1252.257812 629.554688 1270.675781 609.605469 1284.773438 676.394531 C 1298.871094 743.1875 1182.660156 760.113281 1137.273438 765.777344 C 1091.890625 771.441406 1042.253906 823.949219 1096.164062 855.183594 C 1150.074219 886.417969 1208.195312 960.171875 1208.195312 1001.324219 C 1208.195312 1042.476562 1127.359375 1117.6875 1023.835938 1079.378906 C 920.3125 1041.066406 846.480469 992.816406 850.800781 1024.027344 C 855.121094 1055.242188 914.625 1163.09375 886.25 1180.113281 C 857.871094 1197.128906 799.847656 1180.113281 748.6875 1114.84375 C 697.527344 1049.574219 725.949219 1190.054688 632.382812 1205.660156 C 538.816406 1221.265625 449.59375 1095.097656 469.375 998.59375 C 489.15625 902.09375 286.40625 916.308594 265.144531 852.453125 C 243.886719 788.597656 241.019531 775.945312 277.902344 719.074219 Z M 277.902344 719.074219 " fill-opacity="1" fill-rule="nonzero"/><path fill="#f09bc5" d="M 302.914062 707.902344 C 302.914062 707.902344 426.308594 639.816406 443.316406 644.070312 C 460.324219 648.324219 426.308594 575.957031 507.144531 533.371094 C 587.976562 490.785156 473.035156 451.085938 507.144531 395.738281 C 541.25 340.390625 592.226562 425.539062 658.894531 431.226562 C 725.5625 436.914062 779.40625 466.691406 820.558594 338.976562 C 861.714844 211.261719 888.636719 134.667969 951.050781 160.191406 C 1013.46875 185.714844 1023.382812 239.65625 985.160156 307.765625 C 946.9375 375.878906 922.742188 421.285156 936.933594 459.59375 C 951.121094 497.90625 1019.199219 489.398438 1090.09375 472.359375 C 1160.988281 455.316406 1183.707031 506.480469 1149.667969 544.722656 C 1115.628906 582.964844 1030.542969 601.484375 1043.300781 631.171875 C 1056.054688 660.859375 1146.824219 669.480469 1212.082031 643.957031 C 1277.339844 618.429688 1295.757812 598.457031 1309.855469 665.226562 C 1323.953125 731.996094 1207.738281 748.945312 1162.355469 754.632812 C 1116.96875 760.316406 1067.332031 812.914062 1121.246094 844.195312 C 1175.15625 875.476562 1233.273438 949.207031 1233.273438 990.359375 C 1233.273438 1031.511719 1152.441406 1106.699219 1048.914062 1068.390625 C 945.390625 1030.078125 871.5625 981.941406 875.882812 1013.0625 C 880.203125 1044.183594 939.707031 1152.105469 911.328125 1169.144531 C 882.953125 1186.183594 824.925781 1169.144531 773.765625 1103.878906 C 722.605469 1038.609375 751.027344 1179.066406 657.460938 1194.695312 C 563.894531 1210.324219 474.605469 1083.925781 494.386719 987.515625 C 514.167969 891.105469 311.417969 905.207031 290.15625 841.375 C 268.894531 777.539062 266.03125 764.574219 302.914062 707.902344 Z M 302.914062 707.902344 " fill-opacity="1" fill-rule="nonzero"/><path fill="#f09bc5" d="M 623.128906 248.914062 C 623.128906 248.914062 685.429688 200.617188 710.757812 237.539062 C 736.089844 274.460938 673.765625 342.730469 646.503906 332.972656 C 619.238281 323.214844 564.714844 316.707031 623.128906 248.914062 Z M 623.128906 248.914062 " fill-opacity="1" fill-rule="nonzero"/><path fill="#00a1de" d="M 1175.214844 953.089844 C 1175.214844 968.816406 1162.460938 981.566406 1146.730469 981.566406 C 1130.996094 981.566406 1105.203125 963.785156 1105.203125 948.058594 C 1105.203125 932.332031 1130.996094 924.613281 1146.730469 924.613281 C 1162.460938 924.613281 1175.214844 937.363281 1175.214844 953.089844 Z M 1263.054688 716.535156 C 1232.101562 734.402344 1180.765625 747.730469 1171.421875 731.550781 C 1162.078125 715.375 1198.265625 675.8125 1229.21875 657.949219 C 1260.167969 640.085938 1292.835938 638.71875 1302.175781 654.898438 C 1311.519531 671.078125 1294.003906 698.671875 1263.054688 716.535156 Z M 639.164062 369.703125 C 647.667969 392.820312 650.695312 429.25 638.605469 433.691406 C 626.511719 438.136719 603.882812 408.914062 595.378906 385.796875 C 586.875 362.679688 589.785156 340.335938 601.875 335.890625 C 613.964844 331.449219 630.660156 346.585938 639.164062 369.703125 Z M 1053.175781 890.648438 C 1137.484375 966.050781 1032.242188 947.929688 1036.261719 976.976562 C 1066.472656 1195.425781 1399.183594 1210.4375 1319.785156 1299.625 C 1240.382812 1388.808594 1154.183594 1084.707031 921.710938 1095 C 690.765625 1096.59375 770.0625 1367.839844 644.960938 1318.621094 C 543.921875 1263.074219 737.515625 1165.667969 624.878906 1011.945312 C 521.785156 872.726562 321.148438 1025.96875 317.777344 912.660156 C 314.40625 799.355469 553.960938 982.214844 649.0625 741.394531 C 739.28125 608.945312 620.320312 534.304688 677.832031 519.523438 C 735.339844 504.738281 698.84375 640.207031 837.925781 668.875 C 889.910156 679.589844 926.605469 562.222656 975.632812 594.753906 C 1024.660156 627.289062 966.710938 687.191406 990.128906 733.832031 C 1019.585938 792.484375 1104.464844 707.339844 1126.320312 759.183594 C 1148.179688 811.023438 1027.746094 847.425781 1053.175781 890.648438 C 1079.484375 890.648438 1160.0625 890.648438 1053.175781 890.648438 Z M 1053.175781 890.648438 " fill-opacity="1" fill-rule="nonzero"/><path fill="#f4bc33" d="M 311.265625 1205.3125 C 280.066406 1222.109375 248.8125 1222.742188 220.042969 1191.046875 C 166.003906 1131.449219 240.148438 1104.1875 290.605469 1093.078125 C 332.421875 1083.871094 379.140625 1045.34375 389.199219 1002.589844 C 398.464844 963.273438 384 926.492188 343.984375 907.871094 C 330.003906 901.363281 315.796875 892.285156 300.429688 889.890625 C 285.171875 887.53125 269.707031 889.648438 254.363281 889.273438 C 228.296875 888.617188 208.03125 896.335938 182.925781 902.820312 C 157.179688 909.5 123.074219 897.769531 110.125 873.71875 C 99.128906 853.28125 105.769531 827.285156 119.324219 809.832031 C 135.960938 788.40625 155.496094 780.039062 181.960938 780.246094 C 236.628906 780.660156 340.195312 882.832031 383.546875 807.742188 C 417.277344 749.351562 271.597656 657.917969 252.242188 607.523438 C 235.148438 563.070312 233.976562 485.261719 280.324219 456.71875 C 407.503906 378.441406 454.960938 621.980469 491.507812 690.035156 C 607.445312 905.8125 625.5 641.554688 706.773438 585.601562 C 755.039062 552.375 816.558594 560.296875 829.546875 610.992188 C 848.828125 686.203125 728.996094 730.957031 737.789062 781.601562 C 759.648438 907.363281 1049.164062 843.070312 1128.6875 914.625 C 1164.167969 946.542969 1173.183594 975.175781 1155.871094 1022.445312 C 1121.855469 1115.375 1052.210938 1089.691406 976.679688 1071.457031 C 939.558594 1062.5 903.285156 1044.242188 864.195312 1046.101562 C 846.988281 1046.917969 826.699219 1052.59375 818.042969 1069.191406 C 806.394531 1091.511719 827.445312 1107.210938 840.519531 1122.871094 C 857.011719 1142.65625 861.84375 1174.464844 845.820312 1196.261719 C 822.757812 1227.648438 783.351562 1232.9375 753.960938 1208.136719 C 717.214844 1177.101562 720.136719 1068.808594 651.238281 1078.039062 C 597.378906 1085.28125 617.582031 1168.5 601.957031 1202.847656 C 578.898438 1253.496094 494.078125 1273.589844 469.246094 1213.980469 C 456.769531 1184.050781 467.308594 1135.277344 430.675781 1125.15625 C 390.058594 1113.914062 361.960938 1168.863281 334.796875 1189.804688 C 327.003906 1195.851562 319.128906 1201.085938 311.265625 1205.3125 Z M 311.265625 1205.3125 " fill-opacity="1" fill-rule="nonzero"/><path fill="#f4bc33" d="M 589.261719 1387.957031 C 621.4375 1404.523438 634.078125 1444.035156 617.5 1476.214844 C 600.925781 1508.410156 561.429688 1521.0625 529.261719 1504.492188 C 497.085938 1487.894531 484.433594 1448.390625 501.007812 1416.199219 C 517.585938 1384.03125 557.082031 1371.363281 589.261719 1387.957031 Z M 589.261719 1387.957031 " fill-opacity="1" fill-rule="nonzero"/></svg>